<svg xmlns="http://www.w3.org/2000/svg" width="1302" height="533" viewBox="0 0 1302 533">
  <path fill="#FFF" fill-opacity=".4" d="M46,137 C44.3431458,137 43,135.656854 43,134 C43,132.343146 44.3431458,131 46,131 C47.6568542,131 49,132.343146 49,134 C49,135.656854 47.6568542,137 46,137 Z M102,251 C100.343146,251 99,249.656854 99,248 C99,246.343146 100.343146,245 102,245 C103.656854,245 105,246.343146 105,248 C105,249.656854 103.656854,251 102,251 Z M356,104 C354.343146,104 353,102.656854 353,101 C353,99.3431458 354.343146,98 356,98 C357.656854,98 359,99.3431458 359,101 C359,102.656854 357.656854,104 356,104 Z M1184,241 C1182.34315,241 1181,239.656854 1181,238 C1181,236.343146 1182.34315,235 1184,235 C1185.65685,235 1187,236.343146 1187,238 C1187,239.656854 1185.65685,241 1184,241 Z M1330,137 C1328.34315,137 1327,135.656854 1327,134 C1327,132.343146 1328.34315,131 1330,131 C1331.65685,131 1333,132.343146 1333,134 C1333,135.656854 1331.65685,137 1330,137 Z M1235,421 C1233.34315,421 1232,419.656854 1232,418 C1232,416.343146 1233.34315,415 1235,415 C1236.65685,415 1238,416.343146 1238,418 C1238,419.656854 1236.65685,421 1235,421 Z M889,388 C887.343146,388 886,386.656854 886,385 C886,383.343146 887.343146,382 889,382 C890.656854,382 892,383.343146 892,385 C892,386.656854 890.656854,388 889,388 Z M500,356 C498.343146,356 497,354.656854 497,353 C497,351.343146 498.343146,350 500,350 C501.656854,350 503,351.343146 503,353 C503,354.656854 501.656854,356 500,356 Z M853,631 C851.343146,631 850,629.656854 850,628 C850,626.343146 851.343146,625 853,625 C854.656854,625 856,626.343146 856,628 C856,629.656854 854.656854,631 853,631 Z M196,550 C194.343146,550 193,548.656854 193,547 C193,545.343146 194.343146,544 196,544 C197.656854,544 199,545.343146 199,547 C199,548.656854 197.656854,550 196,550 Z M120,631 C118.343146,631 117,629.656854 117,628 C117,626.343146 118.343146,625 120,625 C121.656854,625 123,626.343146 123,628 C123,629.656854 121.656854,631 120,631 Z M517,497 C515.343146,497 514,495.656854 514,494 C514,492.343146 515.343146,491 517,491 C518.656854,491 520,492.343146 520,494 C520,495.656854 518.656854,497 517,497 Z M325,427 C323.343146,427 322,425.656854 322,424 C322,422.343146 323.343146,421 325,421 C326.656854,421 328,422.343146 328,424 C328,425.656854 326.656854,427 325,427 Z M1342,596 C1340.34315,596 1339,594.656854 1339,593 C1339,591.343146 1340.34315,590 1342,590 C1343.65685,590 1345,591.343146 1345,593 C1345,594.656854 1343.65685,596 1342,596 Z" transform="translate(-43 -98)"/>
</svg>
