<svg xmlns="http://www.w3.org/2000/svg" width="1193" height="371" viewBox="0 0 1193 371">
  <path fill="#FFF" fill-opacity=".4" d="M445,27 C444.447715,27 444,26.5522847 444,26 C444,25.4477153 444.447715,25 445,25 C445.552285,25 446,25.4477153 446,26 C446,26.5522847 445.552285,27 445,27 Z M785,53 C784.447715,53 784,52.5522847 784,52 C784,51.4477153 784.447715,51 785,51 C785.552285,51 786,51.4477153 786,52 C786,52.5522847 785.552285,53 785,53 Z M967,55 C966.447715,55 966,54.5522847 966,54 C966,53.4477153 966.447715,53 967,53 C967.552285,53 968,53.4477153 968,54 C968,54.5522847 967.552285,55 967,55 Z M1011,145 C1010.44772,145 1010,144.552285 1010,144 C1010,143.447715 1010.44772,143 1011,143 C1011.55228,143 1012,143.447715 1012,144 C1012,144.552285 1011.55228,145 1011,145 Z M1159,57 C1158.44772,57 1158,56.5522847 1158,56 C1158,55.4477153 1158.44772,55 1159,55 C1159.55228,55 1160,55.4477153 1160,56 C1160,56.5522847 1159.55228,57 1159,57 Z M1258,163 C1257.44772,163 1257,162.552285 1257,162 C1257,161.447715 1257.44772,161 1258,161 C1258.55228,161 1259,161.447715 1259,162 C1259,162.552285 1258.55228,163 1258,163 Z M1260,240 C1259.44772,240 1259,239.552285 1259,239 C1259,238.447715 1259.44772,238 1260,238 C1260.55228,238 1261,238.447715 1261,239 C1261,239.552285 1260.55228,240 1260,240 Z M1286,211 C1285.44772,211 1285,210.552285 1285,210 C1285,209.447715 1285.44772,209 1286,209 C1286.55228,209 1287,209.447715 1287,210 C1287,210.552285 1286.55228,211 1286,211 Z M1092,209 C1091.44772,209 1091,208.552285 1091,208 C1091,207.447715 1091.44772,207 1092,207 C1092.55228,207 1093,207.447715 1093,208 C1093,208.552285 1092.55228,209 1092,209 Z M1052,338 C1051.44772,338 1051,337.552285 1051,337 C1051,336.447715 1051.44772,336 1052,336 C1052.55228,336 1053,336.447715 1053,337 C1053,337.552285 1052.55228,338 1052,338 Z M798,340 C797.447715,340 797,339.552285 797,339 C797,338.447715 797.447715,338 798,338 C798.552285,338 799,338.447715 799,339 C799,339.552285 798.552285,340 798,340 Z M369,280 C368.447715,280 368,279.552285 368,279 C368,278.447715 368.447715,278 369,278 C369.552285,278 370,278.447715 370,279 C370,279.552285 369.552285,280 369,280 Z M231,198 C230.447715,198 230,197.552285 230,197 C230,196.447715 230.447715,196 231,196 C231.552285,196 232,196.447715 232,197 C232,197.552285 231.552285,198 231,198 Z M214,396 C213.447715,396 213,395.552285 213,395 C213,394.447715 213.447715,394 214,394 C214.552285,394 215,394.447715 215,395 C215,395.552285 214.552285,396 214,396 Z M95,79 C94.4477153,79 94,78.5522847 94,78 C94,77.4477153 94.4477153,77 95,77 C95.5522847,77 96,77.4477153 96,78 C96,78.5522847 95.5522847,79 95,79 Z M254,41 C253.447715,41 253,40.5522847 253,40 C253,39.4477153 253.447715,39 254,39 C254.552285,39 255,39.4477153 255,40 C255,40.5522847 254.552285,41 254,41 Z M817,267 C816.447715,267 816,266.552285 816,266 C816,265.447715 816.447715,265 817,265 C817.552285,265 818,265.447715 818,266 C818,266.552285 817.552285,267 817,267 Z" transform="translate(-94 -25)"/>
</svg>
