<svg xmlns="http://www.w3.org/2000/svg" width="1327" height="750" viewBox="0 0 1327 750">
  <path fill="#FFF" fill-opacity=".8" d="M166,112 C163.790861,112 162,110.209139 162,108 C162,105.790861 163.790861,104 166,104 C168.209139,104 170,105.790861 170,108 C170,110.209139 168.209139,112 166,112 Z M174,191 C171.790861,191 170,189.209139 170,187 C170,184.790861 171.790861,183 174,183 C176.209139,183 178,184.790861 178,187 C178,189.209139 176.209139,191 174,191 Z M373,169 C370.790861,169 369,167.209139 369,165 C369,162.790861 370.790861,161 373,161 C375.209139,161 377,162.790861 377,165 C377,167.209139 375.209139,169 373,169 Z M1134,305 C1131.79086,305 1130,303.209139 1130,301 C1130,298.790861 1131.79086,297 1134,297 C1136.20914,297 1138,298.790861 1138,301 C1138,303.209139 1136.20914,305 1134,305 Z M1177,595 C1174.79086,595 1173,593.209139 1173,591 C1173,588.790861 1174.79086,587 1177,587 C1179.20914,587 1181,588.790861 1181,591 C1181,593.209139 1179.20914,595 1177,595 Z M158,432 C155.790861,432 154,430.209139 154,428 C154,425.790861 155.790861,424 158,424 C160.209139,424 162,425.790861 162,428 C162,430.209139 160.209139,432 158,432 Z M358,599 C355.790861,599 354,597.209139 354,595 C354,592.790861 355.790861,591 358,591 C360.209139,591 362,592.790861 362,595 C362,597.209139 360.209139,599 358,599 Z M1142,139 C1139.79086,139 1138,137.209139 1138,135 C1138,132.790861 1139.79086,131 1142,131 C1144.20914,131 1146,132.790861 1146,135 C1146,137.209139 1144.20914,139 1142,139 Z M1358,297 C1355.79086,297 1354,295.209139 1354,293 C1354,290.790861 1355.79086,289 1358,289 C1360.20914,289 1362,290.790861 1362,293 C1362,295.209139 1360.20914,297 1358,297 Z M1366,854 C1363.79086,854 1362,852.209139 1362,850 C1362,847.790861 1363.79086,846 1366,846 C1368.20914,846 1370,847.790861 1370,850 C1370,852.209139 1368.20914,854 1366,854 Z M1181,742 C1178.79086,742 1177,740.209139 1177,738 C1177,735.790861 1178.79086,734 1181,734 C1183.20914,734 1185,735.790861 1185,738 C1185,740.209139 1183.20914,742 1181,742 Z M1329,400 C1326.79086,400 1325,398.209139 1325,396 C1325,393.790861 1326.79086,392 1329,392 C1331.20914,392 1333,393.790861 1333,396 C1333,398.209139 1331.20914,400 1329,400 Z M306,335 C303.790861,335 302,333.209139 302,331 C302,328.790861 303.790861,327 306,327 C308.209139,327 310,328.790861 310,331 C310,333.209139 308.209139,335 306,335 Z M47,374 C44.790861,374 43,372.209139 43,370 C43,367.790861 44.790861,366 47,366 C49.209139,366 51,367.790861 51,370 C51,372.209139 49.209139,374 47,374 Z" transform="translate(-43 -104)"/>
</svg>
